<svg width="16" height="15" viewBox="0 0 16 15" fill="none" xmlns="http://www.w3.org/2000/svg">
<path d="M5.35562 14.2784C6.01283 14.2784 6.54559 13.7456 6.54559 13.0884C6.54559 12.4312 6.01283 11.8984 5.35562 11.8984C4.69842 11.8984 4.16565 12.4312 4.16565 13.0884C4.16565 13.7456 4.69842 14.2784 5.35562 14.2784Z" fill="#E56117"/>
<path d="M13.6837 14.2784C14.341 14.2784 14.8737 13.7456 14.8737 13.0884C14.8737 12.4312 14.341 11.8984 13.6837 11.8984C13.0265 11.8984 12.4938 12.4312 12.4938 13.0884C12.4938 13.7456 13.0265 14.2784 13.6837 14.2784Z" fill="#E56117"/>
<path d="M15.7969 2.11146C15.7133 2.00921 15.608 1.92686 15.4886 1.87039C15.3692 1.81391 15.2388 1.78473 15.1067 1.78496H3.78895L3.56099 0.491607C3.53669 0.353841 3.46461 0.229046 3.35743 0.13914C3.25026 0.0492352 3.11482 -2.93929e-05 2.97493 1.31567e-08H0.594986C0.437186 1.31567e-08 0.285849 0.062686 0.174267 0.174268C0.0626858 0.285849 0 0.437186 0 0.594986C0 0.752786 0.0626858 0.904123 0.174267 1.0157C0.285849 1.12729 0.437186 1.18997 0.594986 1.18997H2.47589L4.17383 10.8131C4.19813 10.9509 4.27021 11.0757 4.37739 11.1656C4.48456 11.2555 4.62 11.3048 4.75989 11.3047H14.2797C14.4375 11.3047 14.5888 11.2421 14.7004 11.1305C14.812 11.0189 14.8747 10.8676 14.8747 10.7098C14.8747 10.552 14.812 10.4006 14.7004 10.289C14.5888 10.1774 14.4375 10.1148 14.2797 10.1148H5.25893L5.0492 8.92479H14.0357C14.2421 8.92453 14.442 8.85299 14.6016 8.72227C14.7613 8.59155 14.8709 8.40969 14.9118 8.20746L15.9828 2.85259C16.0086 2.72299 16.0053 2.58928 15.9732 2.46112C15.941 2.33295 15.8808 2.21352 15.7969 2.11146V2.11146Z" fill="#E56117"/>
</svg>
