<svg width="141" height="36" viewBox="0 0 141 36" fill="none" xmlns="http://www.w3.org/2000/svg">
<path d="M53.8237 14.9229L58.4556 6.96094H62.8755L56.2153 17.8896L63.0269 29H58.5615L53.8237 20.917L49.0708 29H44.6206L51.4473 17.8896L44.772 6.96094H49.1919L53.8237 14.9229ZM79.8438 20.9775C79.8438 23.5104 79.2686 25.5337 78.1182 27.0474C76.9678 28.5509 75.4238 29.3027 73.4863 29.3027C71.6901 29.3027 70.2521 28.7124 69.1724 27.5317V35.2969H65.4941V12.6221H68.8848L69.0361 14.2871C70.1159 12.9753 71.5841 12.3193 73.4409 12.3193C75.439 12.3193 77.0031 13.0661 78.1333 14.5596C79.2736 16.043 79.8438 18.1066 79.8438 20.7505V20.9775ZM76.1807 20.6597C76.1807 19.0249 75.8527 17.7282 75.1968 16.7695C74.5509 15.8109 73.6226 15.3315 72.4116 15.3315C70.908 15.3315 69.8283 15.9521 69.1724 17.1934V24.459C69.8384 25.7305 70.9282 26.3662 72.4419 26.3662C73.6125 26.3662 74.5257 25.897 75.1816 24.9585C75.8477 24.0099 76.1807 22.577 76.1807 20.6597ZM91.5444 15.9824C91.0601 15.9017 90.5605 15.8613 90.0459 15.8613C88.3607 15.8613 87.2254 16.5072 86.6401 17.7988V29H82.9619V12.6221H86.4736L86.5645 14.4536C87.4525 13.0308 88.6836 12.3193 90.2578 12.3193C90.7826 12.3193 91.2165 12.39 91.5596 12.5312L91.5444 15.9824ZM100.778 29.3027C98.4468 29.3027 96.5547 28.5711 95.1016 27.1079C93.6585 25.6346 92.937 23.6769 92.937 21.2349V20.7808C92.937 19.146 93.2498 17.6878 93.8755 16.4062C94.5112 15.1146 95.3993 14.1105 96.5396 13.394C97.6799 12.6776 98.9513 12.3193 100.354 12.3193C102.584 12.3193 104.305 13.0308 105.516 14.4536C106.737 15.8765 107.347 17.8896 107.347 20.4932V21.9766H96.6455C96.7565 23.3288 97.2056 24.3984 97.9927 25.1855C98.7899 25.9727 99.7889 26.3662 100.99 26.3662C102.675 26.3662 104.047 25.6851 105.107 24.3228L107.09 26.2148C106.434 27.1937 105.556 27.9556 104.456 28.5005C103.366 29.0353 102.14 29.3027 100.778 29.3027ZM100.339 15.271C99.3298 15.271 98.5124 15.6242 97.8867 16.3306C97.2712 17.0369 96.8776 18.0208 96.7061 19.2822H103.714V19.0098C103.634 17.7786 103.306 16.8503 102.73 16.2246C102.155 15.5889 101.358 15.271 100.339 15.271ZM119.396 24.5498C119.396 23.8939 119.124 23.3944 118.579 23.0513C118.044 22.7082 117.151 22.4054 115.899 22.1431C114.648 21.8807 113.604 21.5477 112.766 21.144C110.93 20.256 110.011 18.9694 110.011 17.2842C110.011 15.8714 110.607 14.6908 111.797 13.7422C112.988 12.7936 114.502 12.3193 116.338 12.3193C118.296 12.3193 119.875 12.8037 121.076 13.7725C122.287 14.7412 122.893 15.9976 122.893 17.5415H119.214C119.214 16.8351 118.952 16.2498 118.427 15.7856C117.903 15.3114 117.206 15.0742 116.338 15.0742C115.531 15.0742 114.87 15.2609 114.355 15.6343C113.851 16.0076 113.599 16.5072 113.599 17.1328C113.599 17.6979 113.836 18.1369 114.31 18.4497C114.784 18.7625 115.743 19.0804 117.186 19.4033C118.629 19.7161 119.759 20.0946 120.577 20.5386C121.404 20.9725 122.015 21.4972 122.408 22.1128C122.812 22.7284 123.014 23.4751 123.014 24.353C123.014 25.8263 122.403 27.0221 121.182 27.9404C119.961 28.8486 118.362 29.3027 116.384 29.3027C115.042 29.3027 113.846 29.0605 112.796 28.5762C111.747 28.0918 110.93 27.4258 110.344 26.5781C109.759 25.7305 109.466 24.8172 109.466 23.8384H113.039C113.089 24.7062 113.417 25.3773 114.022 25.8516C114.628 26.3158 115.43 26.5479 116.429 26.5479C117.398 26.5479 118.135 26.3662 118.639 26.0029C119.144 25.6296 119.396 25.1452 119.396 24.5498ZM135.411 24.5498C135.411 23.8939 135.138 23.3944 134.593 23.0513C134.058 22.7082 133.165 22.4054 131.914 22.1431C130.663 21.8807 129.618 21.5477 128.781 21.144C126.944 20.256 126.026 18.9694 126.026 17.2842C126.026 15.8714 126.621 14.6908 127.812 13.7422C129.003 12.7936 130.516 12.3193 132.353 12.3193C134.311 12.3193 135.89 12.8037 137.091 13.7725C138.302 14.7412 138.907 15.9976 138.907 17.5415H135.229C135.229 16.8351 134.967 16.2498 134.442 15.7856C133.917 15.3114 133.221 15.0742 132.353 15.0742C131.546 15.0742 130.885 15.2609 130.37 15.6343C129.866 16.0076 129.613 16.5072 129.613 17.1328C129.613 17.6979 129.85 18.1369 130.325 18.4497C130.799 18.7625 131.758 19.0804 133.201 19.4033C134.644 19.7161 135.774 20.0946 136.591 20.5386C137.419 20.9725 138.029 21.4972 138.423 22.1128C138.826 22.7284 139.028 23.4751 139.028 24.353C139.028 25.8263 138.418 27.0221 137.197 27.9404C135.976 28.8486 134.376 29.3027 132.398 29.3027C131.056 29.3027 129.861 29.0605 128.811 28.5762C127.762 28.0918 126.944 27.4258 126.359 26.5781C125.774 25.7305 125.481 24.8172 125.481 23.8384H129.053C129.104 24.7062 129.432 25.3773 130.037 25.8516C130.643 26.3158 131.445 26.5479 132.444 26.5479C133.413 26.5479 134.149 26.3662 134.654 26.0029C135.158 25.6296 135.411 25.1452 135.411 24.5498Z" fill="#171FE5"/>
<g clip-path="url(#clip0_1_109)">
<path d="M20.4994 27.4371C18.7958 27.4371 17.3951 28.7534 17.2247 30.4131V30.4322C17.2247 30.5276 17.2058 30.623 17.2058 30.7184C17.2247 32.5307 18.7012 33.9996 20.4994 33.9996C22.3166 33.9996 23.7741 32.5307 23.7931 30.7184C23.7741 28.9061 22.3166 27.4371 20.4994 27.4371Z" fill="#171FE5"/>
<path d="M35.0375 27.4371C33.8261 27.4371 32.766 28.1048 32.1982 29.0777C31.9332 29.5547 31.7817 30.1079 31.7817 30.6802C31.7817 32.5116 33.2582 33.9996 35.0754 33.9996C36.2111 33.9996 37.2143 33.4273 37.8011 32.5307C38.1229 32.0156 38.3311 31.4051 38.3311 30.7374C38.3501 28.9251 36.8736 27.4371 35.0375 27.4371Z" fill="#171FE5"/>
<path d="M20.5004 28.0477C19.4971 28.0477 18.6264 28.601 18.1721 29.4213C18.5696 29.1923 19.0239 29.0588 19.5161 29.0588C20.9736 29.0588 22.185 30.2607 22.204 31.7296C22.204 32.2065 22.0715 32.6453 21.8443 33.0268C22.6393 32.569 23.1883 31.7105 23.1883 30.7185C23.1693 29.2496 21.9579 28.0477 20.5004 28.0477Z" fill="url(#paint0_linear_1_109)"/>
<path d="M35.0375 28.0477C34.091 28.0477 33.2014 28.5628 32.7282 29.364C32.7282 29.3831 32.7092 29.3831 32.7092 29.4022C33.1067 29.1733 33.561 29.0397 34.0343 29.0397C35.5107 29.0397 36.7222 30.2607 36.7222 31.7487C36.7222 32.1874 36.6086 32.6262 36.4004 33.0268C36.76 32.817 37.0629 32.5499 37.3089 32.2065C37.5929 31.7677 37.7254 31.2717 37.7254 30.7567C37.7254 29.2687 36.5329 28.0477 35.0375 28.0477Z" fill="url(#paint1_linear_1_109)"/>
<path d="M38.3878 23.7937H19.7996L14.6888 9.54319C14.3102 8.49396 13.3259 7.80719 12.2281 7.80719H2.61219C1.17359 7.80719 0 8.97088 0 10.4398C0 11.9087 1.17359 13.0724 2.61219 13.0724H10.4109L15.5217 27.3229C15.711 27.857 16.0706 28.2958 16.5249 28.601C17.2821 27.1703 18.7964 26.1973 20.5189 26.1973C22.4118 26.1973 24.0397 27.3801 24.7211 29.0589H30.873C31.5355 27.3801 33.1634 26.1973 35.0753 26.1973C36.9303 26.1973 38.5203 27.3229 39.2207 28.9253C40.2618 28.582 41.0379 27.59 41.0379 26.4263C41 24.9764 39.8264 23.7937 38.3878 23.7937Z" fill="#171FE5"/>
<path d="M38.3881 21.2564C38.3881 21.2564 38.2556 21.3327 38.0095 21.4472C37.7635 21.5617 37.3849 21.7334 36.8927 21.9051C36.6467 22.0004 36.3627 22.0767 36.0599 22.1721C35.757 22.2484 35.4163 22.3438 35.0566 22.4011C34.3373 22.5537 33.4855 22.63 32.558 22.6109C31.6305 22.5918 30.5894 22.4583 29.5294 22.1531C28.4694 21.8478 27.3904 21.3709 26.3683 20.7223C25.3461 20.0927 24.3807 19.3106 23.5289 18.4331C22.6582 17.5746 21.8821 16.6207 21.1628 15.6669C20.4435 14.694 19.7999 13.721 19.1942 12.7481C18.8914 12.2712 18.5885 11.7943 18.3235 11.3174C18.0396 10.8595 17.7556 10.4017 17.4906 9.94382C16.9417 9.06628 16.4117 8.2269 15.8627 7.50197C15.3327 6.75797 14.7838 6.12843 14.2159 5.61336C13.648 5.09828 13.0802 4.69766 12.5123 4.41151C11.9444 4.12536 11.3955 3.95366 10.9223 3.8392C10.4491 3.74382 10.0516 3.66751 9.78655 3.64843C9.52155 3.62936 9.37012 3.61028 9.37012 3.61028C9.37012 3.61028 9.50262 3.55305 9.76762 3.43859C10.0326 3.3432 10.4112 3.19059 10.9412 3.0952C11.4712 2.99982 12.1337 2.94259 12.9098 3.03797C13.6859 3.11428 14.5566 3.38136 15.4274 3.82013C16.2981 4.2589 17.1499 4.88843 17.926 5.61336C18.721 6.33828 19.4592 7.15859 20.1596 8.03613C20.5192 8.4749 20.86 8.91367 21.1818 9.37151C21.5225 9.82936 21.8443 10.2681 22.185 10.745C22.8475 11.6607 23.4911 12.5764 24.1347 13.454C24.7782 14.3315 25.4408 15.19 26.1222 15.9531C26.4629 16.3346 26.8226 16.7161 27.1633 17.0595C27.5229 17.4029 27.8826 17.7272 28.2422 18.0324C28.9805 18.6429 29.7376 19.1389 30.5137 19.5395C31.2898 19.9401 32.0848 20.2454 32.842 20.4743C33.5991 20.7032 34.3373 20.8558 34.9998 20.9512C35.3406 21.0084 35.6434 21.0275 35.9463 21.0847C36.2492 21.1038 36.5142 21.142 36.7602 21.1611C37.0063 21.1801 37.2335 21.1992 37.4227 21.2183C37.612 21.2374 37.7824 21.2374 37.9338 21.2374C38.2367 21.2564 38.3881 21.2564 38.3881 21.2564Z" fill="#171FE5"/>
<path d="M35.5301 21.657C35.3408 21.6379 35.1326 21.6188 34.9433 21.5807C34.2051 21.4853 33.4479 21.3136 32.6908 21.0847C31.8201 20.8367 31.0061 20.4933 30.249 20.1117C29.3972 19.6539 28.6021 19.1197 27.8639 18.5284C27.5232 18.2613 27.1825 17.937 26.7282 17.5173C26.3685 17.1548 26.0089 16.7733 25.6682 16.4108L25.6492 16.3917C25.0246 15.6859 24.381 14.8656 23.6238 13.8354C23.1885 13.244 22.772 12.6527 22.3367 12.0422C22.1095 11.737 21.9013 11.4127 21.6742 11.1074C21.3145 10.6114 20.9927 10.1536 20.6899 9.75297L20.6141 9.65758C20.2924 9.23789 19.9895 8.83727 19.6677 8.43666C18.9105 7.50189 18.2102 6.73881 17.4909 6.0902C16.7148 5.38435 15.9198 4.81204 15.1248 4.39235C14.3487 3.99173 13.5537 3.74373 12.8154 3.66743C12.6072 3.64835 12.4179 3.62927 12.2097 3.62927C12.399 3.70558 12.5883 3.78189 12.7776 3.87727C13.4022 4.1825 14.0269 4.62127 14.6326 5.1745C14.6894 5.21266 14.7273 5.26989 14.784 5.32712C15.0869 5.55604 15.3898 5.80404 15.6926 6.0902C16.393 6.73881 17.1123 7.50189 17.8695 8.43666C18.1912 8.83727 18.4941 9.23789 18.8159 9.65758L18.8916 9.75297C19.1945 10.1536 19.5163 10.5924 19.8759 11.1074C20.1031 11.4317 20.3302 11.737 20.5384 12.0422C20.9738 12.6527 21.3902 13.244 21.8256 13.8354C22.5828 14.8656 23.2263 15.6668 23.851 16.3917L23.8699 16.4108C24.2106 16.7733 24.5703 17.1739 24.9299 17.5173C25.3842 17.937 25.725 18.2613 26.0657 18.5284C26.785 19.1197 27.5989 19.6539 28.4507 20.1117C29.2079 20.5124 30.0218 20.8367 30.8925 21.0847C31.6497 21.3136 32.4069 21.4853 33.1451 21.5807C33.3344 21.6188 33.5237 21.6379 33.7319 21.657C33.5426 21.6951 33.3533 21.7524 33.164 21.7905C32.7476 21.8668 32.3311 21.924 31.8768 21.9622C32.104 21.9813 32.3311 22.0004 32.5583 22.0004H32.7476C33.5237 22.0004 34.2619 21.924 34.9433 21.7905C35.1515 21.7524 35.3408 21.6951 35.5301 21.657Z" fill="#171FE5"/>
<path d="M38.388 24.4039H19.3645L14.1212 9.75287C13.8373 8.95163 13.0801 8.41748 12.2472 8.41748H2.61242C1.51454 8.41748 0.605957 9.3141 0.605957 10.4396C0.605957 10.6876 0.643815 10.9166 0.738459 11.1455C1.07918 10.8593 1.51454 10.7067 1.98777 10.7067H11.6036C12.4365 10.7067 13.1937 11.2409 13.4776 12.0421L18.6831 26.5978C19.232 26.3498 19.8377 26.2162 20.4624 26.2162C21.2006 26.2162 21.882 26.3879 22.4878 26.7122H32.9744C33.5801 26.407 34.2805 26.2162 34.9998 26.2162C35.738 26.2162 36.4194 26.3879 37.0252 26.7122H37.7255C38.5773 26.7122 39.3156 27.2655 39.5995 28.0095C40.0538 27.647 40.3377 27.0747 40.3377 26.4452C40.3945 25.3196 39.4859 24.4039 38.388 24.4039Z" fill="#171FE5"/>
</g>
<defs>
<linearGradient id="paint0_linear_1_109" x1="18.1664" y1="30.537" x2="23.1869" y2="30.537" gradientUnits="userSpaceOnUse">
<stop stop-color="white" stop-opacity="0.4"/>
<stop offset="1" stop-color="white" stop-opacity="0"/>
</linearGradient>
<linearGradient id="paint1_linear_1_109" x1="32.721" y1="30.5444" x2="37.7314" y2="30.5444" gradientUnits="userSpaceOnUse">
<stop stop-color="white" stop-opacity="0.4"/>
<stop offset="1" stop-color="white" stop-opacity="0"/>
</linearGradient>
<clipPath id="clip0_1_109">
<rect width="41" height="31" fill="white" transform="translate(0 3)"/>
</clipPath>
</defs>
</svg>
