<svg width="140" height="36" viewBox="0 0 140 36" fill="none" xmlns="http://www.w3.org/2000/svg">
<path d="M52.8237 14.9229L57.4556 6.96094H61.8755L55.2153 17.8896L62.0269 29H57.5615L52.8237 20.917L48.0708 29H43.6206L50.4473 17.8896L43.772 6.96094H48.1919L52.8237 14.9229ZM78.8438 20.9775C78.8438 23.5104 78.2686 25.5337 77.1182 27.0474C75.9678 28.5509 74.4238 29.3027 72.4863 29.3027C70.6901 29.3027 69.2521 28.7124 68.1724 27.5317V35.2969H64.4941V12.6221H67.8848L68.0361 14.2871C69.1159 12.9753 70.5841 12.3193 72.4409 12.3193C74.439 12.3193 76.0031 13.0661 77.1333 14.5596C78.2736 16.043 78.8438 18.1066 78.8438 20.7505V20.9775ZM75.1807 20.6597C75.1807 19.0249 74.8527 17.7282 74.1968 16.7695C73.5509 15.8109 72.6226 15.3315 71.4116 15.3315C69.908 15.3315 68.8283 15.9521 68.1724 17.1934V24.459C68.8384 25.7305 69.9282 26.3662 71.4419 26.3662C72.6125 26.3662 73.5257 25.897 74.1816 24.9585C74.8477 24.0099 75.1807 22.577 75.1807 20.6597ZM90.5444 15.9824C90.0601 15.9017 89.5605 15.8613 89.0459 15.8613C87.3607 15.8613 86.2254 16.5072 85.6401 17.7988V29H81.9619V12.6221H85.4736L85.5645 14.4536C86.4525 13.0308 87.6836 12.3193 89.2578 12.3193C89.7826 12.3193 90.2165 12.39 90.5596 12.5312L90.5444 15.9824ZM99.7778 29.3027C97.4468 29.3027 95.5547 28.5711 94.1016 27.1079C92.6585 25.6346 91.937 23.6769 91.937 21.2349V20.7808C91.937 19.146 92.2498 17.6878 92.8755 16.4062C93.5112 15.1146 94.3993 14.1105 95.5396 13.394C96.6799 12.6776 97.9513 12.3193 99.354 12.3193C101.584 12.3193 103.305 13.0308 104.516 14.4536C105.737 15.8765 106.347 17.8896 106.347 20.4932V21.9766H95.6455C95.7565 23.3288 96.2056 24.3984 96.9927 25.1855C97.7899 25.9727 98.7889 26.3662 99.9897 26.3662C101.675 26.3662 103.047 25.6851 104.107 24.3228L106.09 26.2148C105.434 27.1937 104.556 27.9556 103.456 28.5005C102.366 29.0353 101.14 29.3027 99.7778 29.3027ZM99.3389 15.271C98.3298 15.271 97.5124 15.6242 96.8867 16.3306C96.2712 17.0369 95.8776 18.0208 95.7061 19.2822H102.714V19.0098C102.634 17.7786 102.306 16.8503 101.73 16.2246C101.155 15.5889 100.358 15.271 99.3389 15.271ZM118.396 24.5498C118.396 23.8939 118.124 23.3944 117.579 23.0513C117.044 22.7082 116.151 22.4054 114.899 22.1431C113.648 21.8807 112.604 21.5477 111.766 21.144C109.93 20.256 109.011 18.9694 109.011 17.2842C109.011 15.8714 109.607 14.6908 110.797 13.7422C111.988 12.7936 113.502 12.3193 115.338 12.3193C117.296 12.3193 118.875 12.8037 120.076 13.7725C121.287 14.7412 121.893 15.9976 121.893 17.5415H118.214C118.214 16.8351 117.952 16.2498 117.427 15.7856C116.903 15.3114 116.206 15.0742 115.338 15.0742C114.531 15.0742 113.87 15.2609 113.355 15.6343C112.851 16.0076 112.599 16.5072 112.599 17.1328C112.599 17.6979 112.836 18.1369 113.31 18.4497C113.784 18.7625 114.743 19.0804 116.186 19.4033C117.629 19.7161 118.759 20.0946 119.577 20.5386C120.404 20.9725 121.015 21.4972 121.408 22.1128C121.812 22.7284 122.014 23.4751 122.014 24.353C122.014 25.8263 121.403 27.0221 120.182 27.9404C118.961 28.8486 117.362 29.3027 115.384 29.3027C114.042 29.3027 112.846 29.0605 111.796 28.5762C110.747 28.0918 109.93 27.4258 109.344 26.5781C108.759 25.7305 108.466 24.8172 108.466 23.8384H112.039C112.089 24.7062 112.417 25.3773 113.022 25.8516C113.628 26.3158 114.43 26.5479 115.429 26.5479C116.398 26.5479 117.135 26.3662 117.639 26.0029C118.144 25.6296 118.396 25.1452 118.396 24.5498ZM134.411 24.5498C134.411 23.8939 134.138 23.3944 133.593 23.0513C133.058 22.7082 132.165 22.4054 130.914 22.1431C129.663 21.8807 128.618 21.5477 127.781 21.144C125.944 20.256 125.026 18.9694 125.026 17.2842C125.026 15.8714 125.621 14.6908 126.812 13.7422C128.003 12.7936 129.516 12.3193 131.353 12.3193C133.311 12.3193 134.89 12.8037 136.091 13.7725C137.302 14.7412 137.907 15.9976 137.907 17.5415H134.229C134.229 16.8351 133.967 16.2498 133.442 15.7856C132.917 15.3114 132.221 15.0742 131.353 15.0742C130.546 15.0742 129.885 15.2609 129.37 15.6343C128.866 16.0076 128.613 16.5072 128.613 17.1328C128.613 17.6979 128.85 18.1369 129.325 18.4497C129.799 18.7625 130.758 19.0804 132.201 19.4033C133.644 19.7161 134.774 20.0946 135.591 20.5386C136.419 20.9725 137.029 21.4972 137.423 22.1128C137.826 22.7284 138.028 23.4751 138.028 24.353C138.028 25.8263 137.418 27.0221 136.197 27.9404C134.976 28.8486 133.376 29.3027 131.398 29.3027C130.056 29.3027 128.861 29.0605 127.811 28.5762C126.762 28.0918 125.944 27.4258 125.359 26.5781C124.774 25.7305 124.481 24.8172 124.481 23.8384H128.053C128.104 24.7062 128.432 25.3773 129.037 25.8516C129.643 26.3158 130.445 26.5479 131.444 26.5479C132.413 26.5479 133.149 26.3662 133.654 26.0029C134.158 25.6296 134.411 25.1452 134.411 24.5498Z" fill="white"/>
<g clip-path="url(#clip0_1_162)">
<path d="M20.4994 27.4373C18.7958 27.4373 17.3951 28.7536 17.2247 30.4133V30.4323C17.2247 30.5277 17.2058 30.6231 17.2058 30.7185C17.2247 32.5308 18.7012 33.9997 20.4994 33.9997C22.3166 33.9997 23.7741 32.5308 23.7931 30.7185C23.7741 28.9062 22.3166 27.4373 20.4994 27.4373Z" fill="white"/>
<path d="M35.0375 27.4373C33.8261 27.4373 32.766 28.1049 32.1982 29.0779C31.9332 29.5548 31.7817 30.108 31.7817 30.6803C31.7817 32.5117 33.2582 33.9997 35.0754 33.9997C36.2111 33.9997 37.2143 33.4274 37.8011 32.5308C38.1229 32.0157 38.3311 31.4053 38.3311 30.7376C38.3501 28.9253 36.8736 27.4373 35.0375 27.4373Z" fill="white"/>
<path d="M20.5004 28.0479C19.4971 28.0479 18.6264 28.6011 18.1721 29.4214C18.5696 29.1925 19.0239 29.0589 19.5161 29.0589C20.9736 29.0589 22.185 30.2608 22.204 31.7297C22.204 32.2066 22.0715 32.6454 21.8443 33.0269C22.6393 32.5691 23.1883 31.7106 23.1883 30.7186C23.1693 29.2497 21.9579 28.0479 20.5004 28.0479Z" fill="white"/>
<path d="M35.0375 28.0479C34.091 28.0479 33.2014 28.5629 32.7282 29.3642C32.7282 29.3832 32.7092 29.3832 32.7092 29.4023C33.1067 29.1734 33.561 29.0399 34.0343 29.0399C35.5107 29.0399 36.7222 30.2608 36.7222 31.7488C36.7222 32.1875 36.6086 32.6263 36.4004 33.0269C36.76 32.8171 37.0629 32.55 37.3089 32.2066C37.5929 31.7679 37.7254 31.2719 37.7254 30.7568C37.7254 29.2688 36.5329 28.0479 35.0375 28.0479Z" fill="white"/>
<path d="M38.3878 23.7936H19.7996L14.6888 9.54313C14.3102 8.4939 13.3259 7.80713 12.2281 7.80713H2.61219C1.17359 7.80713 0 8.97082 0 10.4397C0 11.9087 1.17359 13.0724 2.61219 13.0724H10.4109L15.5217 27.3228C15.711 27.857 16.0706 28.2957 16.5249 28.601C17.2821 27.1702 18.7964 26.1973 20.5189 26.1973C22.4118 26.1973 24.0397 27.3801 24.7211 29.0588H30.873C31.5355 27.3801 33.1634 26.1973 35.0752 26.1973C36.9303 26.1973 38.5203 27.3228 39.2207 28.9253C40.2618 28.5819 41.0379 27.5899 41.0379 26.4262C41 24.9764 39.8264 23.7936 38.3878 23.7936Z" fill="white"/>
<path d="M38.3881 21.2565C38.3881 21.2565 38.2556 21.3328 38.0095 21.4473C37.7635 21.5617 37.3849 21.7334 36.8927 21.9051C36.6467 22.0005 36.3627 22.0768 36.0599 22.1722C35.757 22.2485 35.4163 22.3439 35.0566 22.4011C34.3373 22.5537 33.4855 22.63 32.558 22.611C31.6305 22.5919 30.5894 22.4583 29.5294 22.1531C28.4694 21.8479 27.3904 21.371 26.3683 20.7223C25.3461 20.0928 24.3807 19.3106 23.5289 18.4331C22.6582 17.5747 21.8821 16.6208 21.1628 15.667C20.4435 14.694 19.7999 13.7211 19.1942 12.7482C18.8914 12.2713 18.5885 11.7943 18.3235 11.3174C18.0396 10.8596 17.7556 10.4017 17.4906 9.94388C16.9417 9.06634 16.4117 8.22696 15.8627 7.50203C15.3327 6.75803 14.7838 6.12849 14.2159 5.61342C13.648 5.09834 13.0802 4.69773 12.5123 4.41157C11.9444 4.12542 11.3955 3.95373 10.9223 3.83926C10.4491 3.74388 10.0516 3.66757 9.78655 3.64849C9.52155 3.62942 9.37012 3.61034 9.37012 3.61034C9.37012 3.61034 9.50262 3.55311 9.76762 3.43865C10.0326 3.34326 10.4112 3.19065 10.9412 3.09526C11.4712 2.99988 12.1337 2.94265 12.9098 3.03803C13.6859 3.11434 14.5566 3.38142 15.4274 3.82019C16.2981 4.25896 17.1499 4.88849 17.926 5.61342C18.721 6.33834 19.4592 7.15865 20.1596 8.03619C20.5192 8.47496 20.86 8.91373 21.1818 9.37157C21.5225 9.82942 21.8443 10.2682 22.185 10.7451C22.8475 11.6608 23.4911 12.5765 24.1347 13.454C24.7782 14.3316 25.4408 15.19 26.1222 15.9531C26.4629 16.3347 26.8226 16.7162 27.1633 17.0596C27.5229 17.403 27.8826 17.7273 28.2422 18.0325C28.9805 18.643 29.7376 19.139 30.5137 19.5396C31.2898 19.9402 32.0848 20.2454 32.842 20.4743C33.5991 20.7033 34.3373 20.8559 34.9998 20.9513C35.3406 21.0085 35.6434 21.0276 35.9463 21.0848C36.2492 21.1039 36.5142 21.142 36.7602 21.1611C37.0063 21.1802 37.2335 21.1993 37.4227 21.2183C37.612 21.2374 37.7824 21.2374 37.9338 21.2374C38.2367 21.2565 38.3881 21.2565 38.3881 21.2565Z" fill="white"/>
<path d="M35.5301 21.6571C35.3408 21.638 35.1326 21.6189 34.9433 21.5808C34.2051 21.4854 33.4479 21.3137 32.6908 21.0848C31.8201 20.8368 31.0061 20.4934 30.249 20.1119C29.3972 19.654 28.6021 19.1199 27.8639 18.5285C27.5232 18.2614 27.1825 17.9371 26.7282 17.5174C26.3685 17.1549 26.0089 16.7734 25.6682 16.4109L25.6492 16.3919C25.0246 15.686 24.381 14.8657 23.6238 13.8356C23.1885 13.2442 22.772 12.6528 22.3367 12.0423C22.1095 11.7371 21.9013 11.4128 21.6742 11.1076C21.3145 10.6115 20.9927 10.1537 20.6899 9.75309L20.6141 9.6577C20.2924 9.23801 19.9895 8.8374 19.6677 8.43678C18.9105 7.50201 18.2102 6.73893 17.4909 6.09032C16.7148 5.38447 15.9198 4.81216 15.1248 4.39247C14.3487 3.99186 13.5537 3.74386 12.8154 3.66755C12.6072 3.64847 12.4179 3.62939 12.2097 3.62939C12.399 3.7057 12.5883 3.78201 12.7776 3.87739C13.4022 4.18263 14.0269 4.62139 14.6326 5.17463C14.6894 5.21278 14.7273 5.27001 14.784 5.32724C15.0869 5.55616 15.3898 5.80416 15.6926 6.09032C16.393 6.73893 17.1123 7.50201 17.8695 8.43678C18.1912 8.8374 18.4941 9.23801 18.8159 9.6577L18.8916 9.75309C19.1945 10.1537 19.5163 10.5925 19.8759 11.1076C20.1031 11.4319 20.3302 11.7371 20.5384 12.0423C20.9738 12.6528 21.3902 13.2442 21.8256 13.8356C22.5828 14.8657 23.2263 15.6669 23.851 16.3919L23.8699 16.4109C24.2106 16.7734 24.5703 17.174 24.9299 17.5174C25.3842 17.9371 25.725 18.2614 26.0657 18.5285C26.785 19.1199 27.5989 19.654 28.4507 20.1119C29.2079 20.5125 30.0218 20.8368 30.8925 21.0848C31.6497 21.3137 32.4069 21.4854 33.1451 21.5808C33.3344 21.6189 33.5237 21.638 33.7319 21.6571C33.5426 21.6952 33.3533 21.7525 33.164 21.7906C32.7476 21.8669 32.3311 21.9242 31.8768 21.9623C32.104 21.9814 32.3311 22.0005 32.5583 22.0005H32.7476C33.5237 22.0005 34.2619 21.9242 34.9433 21.7906C35.1515 21.7525 35.3408 21.6952 35.5301 21.6571Z" fill="white"/>
<path d="M38.388 23.986H19.3645L14.1212 9.3349C13.8373 8.53367 13.0801 7.99951 12.2472 7.99951H2.61242C1.51454 7.99951 0.605957 8.89613 0.605957 10.0217C0.605957 10.2697 0.643815 10.4986 0.738459 10.7275C1.07918 10.4414 1.51454 10.2887 1.98777 10.2887H11.6036C12.4365 10.2887 13.1937 10.8229 13.4776 11.6241L18.6831 26.1798C19.232 25.9318 19.8377 25.7983 20.4624 25.7983C21.2006 25.7983 21.882 25.97 22.4878 26.2943H32.9744C33.5801 25.989 34.2805 25.7983 34.9998 25.7983C35.738 25.7983 36.4194 25.97 37.0252 26.2943H37.7255C38.5773 26.2943 39.3156 26.8475 39.5995 27.5915C40.0538 27.229 40.3377 26.6567 40.3377 26.0272C40.3945 24.9017 39.4859 23.986 38.388 23.986Z" fill="white"/>
</g>
<defs>
<clipPath id="clip0_1_162">
<rect width="41" height="31" fill="white" transform="translate(0 3)"/>
</clipPath>
</defs>
</svg>
